<svg width="664" height="452" viewBox="0 0 664 452" fill="none" xmlns="http://www.w3.org/2000/svg">
<g clip-path="url(#clip0_88_837)">
<path d="M595.679 441.276C580.787 452.017 561.488 452.556 542.833 451.236C540.229 451.052 537.642 450.837 535.08 450.604C535.064 450.6 535.044 450.601 535.028 450.597C534.905 450.585 534.781 450.574 534.664 450.567C534.135 450.517 533.606 450.468 533.082 450.418L533.205 450.654L533.594 451.388C533.454 451.142 533.315 450.902 533.175 450.656C533.134 450.583 533.088 450.509 533.047 450.435C528.215 442.016 523.422 433.287 522.199 423.673C520.935 413.695 524.487 402.395 533.259 397.491C534.41 396.849 535.628 396.338 536.892 395.968C537.416 395.808 537.948 395.679 538.486 395.564C541.776 394.833 545.201 394.992 548.409 396.025C551.617 397.058 554.493 398.928 556.74 401.443C558.987 403.958 560.524 407.026 561.194 410.333C561.864 413.639 561.642 417.065 560.551 420.257C567.988 412.622 566.601 400.236 564.035 389.884C561.465 379.533 558.353 368.014 563.581 358.716C566.487 353.541 571.598 350.33 577.334 349.037C577.51 348.999 577.685 348.961 577.862 348.928C584.695 347.542 591.8 348.788 597.756 352.418C608.723 359.337 614.355 372.455 616.184 385.306C619.129 405.985 612.611 429.063 595.679 441.276Z" fill="#F2F2F2"/>
<path d="M590.871 408.127C590.439 412.688 589.344 417.162 587.622 421.407C586.035 425.164 583.896 428.662 581.276 431.785C575.829 438.168 568.93 443.148 561.16 446.306C555.283 448.716 549.125 450.373 542.833 451.236C540.229 451.052 537.642 450.837 535.08 450.604C535.064 450.6 535.044 450.601 535.028 450.597C534.905 450.585 534.782 450.574 534.664 450.567C534.135 450.517 533.606 450.468 533.082 450.418L533.206 450.654L533.594 451.388C533.454 451.142 533.315 450.902 533.175 450.656C533.134 450.583 533.088 450.509 533.047 450.435C537.764 445.73 541.286 439.961 543.318 433.613C545.35 427.264 545.832 420.521 544.724 413.947C543.565 407.42 540.881 401.259 536.892 395.968C537.416 395.808 537.948 395.679 538.486 395.564C540.002 397.639 541.332 399.844 542.46 402.154C546.508 410.391 547.799 419.713 546.143 428.742C544.603 436.912 540.767 444.473 535.085 450.537C535.583 450.502 536.085 450.461 536.577 450.416C545.889 449.626 555.181 447.622 563.627 443.517C570.847 440.093 577.114 434.944 581.878 428.524C586.993 421.462 589.247 412.966 589.635 404.332C589.933 395.03 588.959 385.73 586.74 376.692C584.588 367.476 581.318 358.559 577.003 350.138C576.907 349.947 576.887 349.726 576.949 349.521C577.01 349.316 577.148 349.143 577.334 349.037C577.489 348.932 577.678 348.893 577.862 348.928C577.952 348.952 578.035 348.996 578.105 349.056C578.176 349.116 578.232 349.192 578.269 349.277C578.801 350.317 579.324 351.358 579.826 352.411C584.012 361.178 587.094 370.432 589.001 379.96C590.852 389.152 591.84 398.767 590.871 408.127Z" fill="white"/>
<path d="M27.703 143.667C27.2596 143.666 26.8202 143.583 26.4072 143.422C25.7393 143.165 25.1653 142.711 24.7614 142.119C24.3575 141.528 24.1428 140.828 24.1459 140.111V103.01C24.1445 101.754 23.6456 100.55 22.7586 99.6624C21.8717 98.7744 20.6691 98.2749 19.4147 98.2734H11.8261C8.69067 98.2699 5.68471 97.0213 3.46765 94.8017C1.2506 92.5821 0.00351399 89.5726 0 86.4336V11.8398C0.00351607 8.70075 1.2506 5.69131 3.46765 3.47168C5.68471 1.25205 8.69067 0.00351807 11.8261 0H279.501C282.636 0.00352224 285.642 1.25205 287.859 3.47168C290.076 5.69131 291.323 8.70076 291.327 11.8398V86.4336C291.323 89.5726 290.076 92.582 287.859 94.8017C285.642 97.0213 282.636 98.2698 279.501 98.2734H72.894C72.2382 98.2741 71.5896 98.411 70.9893 98.6754C70.389 98.9398 69.85 99.3259 69.4063 99.8094L30.3085 142.511C29.9783 142.875 29.5761 143.165 29.1274 143.364C28.6788 143.563 28.1936 143.666 27.703 143.667ZM11.8261 1.57766C9.10847 1.58073 6.50307 2.66291 4.58144 4.58676C2.65982 6.51062 1.5789 9.11904 1.57583 11.8398V86.4336C1.5789 89.1543 2.65982 91.7627 4.58144 93.6866C6.50306 95.6105 9.10847 96.6926 11.8261 96.6957H19.4147C21.0869 96.6976 22.69 97.3635 23.8724 98.5473C25.0548 99.7311 25.7199 101.336 25.7217 103.01V140.111C25.7217 140.509 25.8418 140.898 26.066 141.226C26.2903 141.554 26.6084 141.807 26.9787 141.951C27.3489 142.095 27.754 142.124 28.1409 142.034C28.5278 141.944 28.8785 141.738 29.1469 141.445L68.2447 98.7433C68.8362 98.0988 69.5547 97.584 70.355 97.2316C71.1552 96.8792 72.0198 96.6967 72.894 96.6957H279.501C282.218 96.6926 284.824 95.6105 286.745 93.6866C288.667 91.7627 289.748 89.1543 289.751 86.4336V11.8398C289.748 9.11904 288.667 6.51062 286.745 4.58676C284.824 2.66291 282.218 1.58073 279.501 1.57766H11.8261Z" fill="#CCCCCC"/>
<path d="M29.0079 33.5964C34.7231 33.5964 39.3562 28.9579 39.3562 23.2361C39.3562 17.5143 34.7231 12.8758 29.0079 12.8758C23.2927 12.8758 18.6597 17.5143 18.6597 23.2361C18.6597 28.9579 23.2927 33.5964 29.0079 33.5964Z" fill="#CCCCCC"/>
<path d="M267.428 80.5629H23.8992C23.1739 80.5638 22.4555 80.4215 21.7851 80.1442C21.1148 79.8669 20.5056 79.4601 19.9924 78.9469C19.4792 78.4337 19.0721 77.8243 18.7943 77.1535C18.5165 76.4827 18.3735 75.7636 18.3735 75.0375C18.3735 74.3113 18.5165 73.5922 18.7943 72.9214C19.0721 72.2506 19.4792 71.6412 19.9924 71.128C20.5056 70.6148 21.1148 70.208 21.7851 69.9307C22.4555 69.6534 23.1739 69.5111 23.8992 69.512H267.428C268.153 69.5111 268.872 69.6534 269.542 69.9307C270.212 70.208 270.822 70.6148 271.335 71.128C271.848 71.6412 272.255 72.2506 272.533 72.9214C272.811 73.5922 272.954 74.3113 272.954 75.0375C272.954 75.7636 272.811 76.4827 272.533 77.1535C272.255 77.8243 271.848 78.4337 271.335 78.9469C270.822 79.4601 270.212 79.8669 269.542 80.1442C268.872 80.4215 268.153 80.5638 267.428 80.5629Z" fill="#CCCCCC"/>
<path d="M188.091 57.0797H23.8992C23.1739 57.0805 22.4555 56.9382 21.7851 56.6609C21.1148 56.3836 20.5056 55.9768 19.9924 55.4636C19.4792 54.9504 19.0721 54.341 18.7943 53.6702C18.5165 52.9994 18.3735 52.2803 18.3735 51.5542C18.3735 50.828 18.5165 50.1089 18.7943 49.4381C19.0721 48.7673 19.4792 48.1579 19.9924 47.6447C20.5056 47.1316 21.1148 46.7247 21.7851 46.4474C22.4555 46.1701 23.1739 46.0278 23.8992 46.0287H188.091C188.817 46.0278 189.535 46.1701 190.206 46.4474C190.876 46.7247 191.485 47.1316 191.998 47.6447C192.512 48.1579 192.919 48.7673 193.196 49.4381C193.474 50.1089 193.617 50.828 193.617 51.5542C193.617 52.2803 193.474 52.9994 193.196 53.6702C192.919 54.341 192.512 54.9504 191.998 55.4636C191.485 55.9768 190.876 56.3836 190.206 56.6609C189.535 56.9382 188.817 57.0805 188.091 57.0797Z" fill="#CCCCCC"/>
<path d="M27.703 406.817C27.2596 406.817 26.8202 406.734 26.4072 406.573C25.7394 406.316 25.1654 405.861 24.7615 405.27C24.3576 404.679 24.1429 403.979 24.1459 403.262V366.161C24.1445 364.905 23.6456 363.701 22.7586 362.813C21.8717 361.925 20.6691 361.426 19.4147 361.424H11.8261C8.69067 361.421 5.68472 360.172 3.46766 357.953C1.25061 355.733 0.00352233 352.724 0 349.585V274.991C0.00351607 271.852 1.2506 268.842 3.46765 266.623C5.6847 264.403 8.69067 263.154 11.8261 263.151H279.501C282.636 263.154 285.642 264.403 287.859 266.623C290.076 268.842 291.323 271.852 291.327 274.991V349.585C291.323 352.724 290.076 355.733 287.859 357.953C285.642 360.172 282.636 361.421 279.501 361.424H72.894C72.2382 361.425 71.5896 361.562 70.9893 361.826C70.389 362.091 69.85 362.477 69.4063 362.96L30.3085 405.662C29.9783 406.026 29.5761 406.316 29.1274 406.515C28.6788 406.714 28.1936 406.817 27.703 406.817ZM11.8261 264.729C9.10847 264.732 6.50307 265.814 4.58144 267.738C2.65982 269.662 1.5789 272.27 1.57583 274.991V349.585C1.5789 352.305 2.65982 354.914 4.58144 356.838C6.50306 358.761 9.10847 359.844 11.8261 359.847H19.4147C21.0869 359.849 22.69 360.514 23.8724 361.698C25.0548 362.882 25.7199 364.487 25.7217 366.161V403.262C25.7217 403.66 25.8418 404.049 26.066 404.377C26.2903 404.705 26.6084 404.958 26.9787 405.102C27.3489 405.246 27.754 405.275 28.1409 405.185C28.5278 405.095 28.8785 404.889 29.1469 404.596L68.2447 361.894C68.8362 361.25 69.5547 360.735 70.355 360.383C71.1552 360.03 72.0198 359.848 72.894 359.847H279.501C282.218 359.844 284.824 358.761 286.745 356.838C288.667 354.914 289.748 352.305 289.751 349.585V274.991C289.748 272.27 288.667 269.662 286.745 267.738C284.824 265.814 282.218 264.732 279.501 264.729L11.8261 264.729Z" fill="#CCCCCC"/>
<path d="M422.987 270.062C422.496 270.062 422.011 269.959 421.563 269.76C421.114 269.561 420.712 269.27 420.382 268.907L381.284 226.205C380.84 225.721 380.301 225.335 379.701 225.071C379.101 224.807 378.452 224.67 377.796 224.669H171.189C168.054 224.665 165.048 223.417 162.831 221.197C160.614 218.978 159.367 215.968 159.363 212.829V138.235C159.367 135.096 160.614 132.087 162.831 129.867C165.048 127.648 168.054 126.399 171.189 126.395H438.864C441.999 126.399 445.005 127.648 447.222 129.867C449.44 132.087 450.687 135.096 450.69 138.235V212.829C450.687 215.968 449.44 218.978 447.222 221.197C445.005 223.417 441.999 224.665 438.864 224.669H431.275C430.021 224.67 428.818 225.17 427.932 226.058C427.045 226.946 426.546 228.15 426.544 229.406V266.507C426.547 267.223 426.333 267.923 425.929 268.515C425.525 269.106 424.951 269.56 424.283 269.817C423.87 269.978 423.43 270.062 422.987 270.062ZM171.189 127.973C168.472 127.976 165.866 129.058 163.945 130.982C162.023 132.906 160.942 135.515 160.939 138.235V212.829C160.942 215.55 162.023 218.158 163.945 220.082C165.866 222.006 168.472 223.088 171.189 223.091H377.796C378.67 223.092 379.535 223.275 380.335 223.627C381.135 223.979 381.854 224.494 382.445 225.139L421.543 267.841C421.812 268.134 422.162 268.339 422.549 268.429C422.936 268.52 423.341 268.491 423.711 268.347C424.082 268.202 424.4 267.95 424.624 267.621C424.848 267.293 424.968 266.905 424.968 266.507V229.406C424.97 227.732 425.635 226.127 426.818 224.943C428 223.759 429.603 223.093 431.275 223.091H438.864C441.582 223.088 444.187 222.006 446.109 220.082C448.03 218.158 449.111 215.55 449.114 212.829V138.235C449.111 135.515 448.03 132.906 446.109 130.982C444.187 129.058 441.582 127.976 438.864 127.973L171.189 127.973Z" fill="#3F3D56"/>
<path d="M29.0079 296.747C34.7231 296.747 39.3562 292.109 39.3562 286.387C39.3562 280.665 34.7231 276.027 29.0079 276.027C23.2927 276.027 18.6597 280.665 18.6597 286.387C18.6597 292.109 23.2927 296.747 29.0079 296.747Z" fill="#CCCCCC"/>
<path d="M267.428 343.714H23.8992C23.1739 343.715 22.4555 343.572 21.7851 343.295C21.1148 343.018 20.5056 342.611 19.9924 342.098C19.4792 341.585 19.0721 340.975 18.7943 340.304C18.5165 339.634 18.3735 338.915 18.3735 338.188C18.3735 337.462 18.5165 336.743 18.7943 336.072C19.0721 335.402 19.4792 334.792 19.9924 334.279C20.5056 333.766 21.1148 333.359 21.7851 333.082C22.4555 332.804 23.1739 332.662 23.8992 332.663H267.428C268.892 332.663 270.296 333.245 271.331 334.281C272.366 335.317 272.947 336.723 272.947 338.188C272.947 339.654 272.366 341.059 271.331 342.095C270.296 343.132 268.892 343.714 267.428 343.714Z" fill="#CCCCCC"/>
<path d="M188.091 320.231H23.8992C23.1739 320.231 22.4555 320.089 21.7851 319.812C21.1148 319.535 20.5056 319.128 19.9924 318.615C19.4792 318.101 19.0721 317.492 18.7943 316.821C18.5165 316.15 18.3735 315.431 18.3735 314.705C18.3735 313.979 18.5165 313.26 18.7943 312.589C19.0721 311.918 19.4792 311.309 19.9924 310.796C20.5056 310.282 21.1148 309.876 21.7851 309.598C22.4555 309.321 23.1739 309.179 23.8992 309.18H188.091C188.817 309.179 189.535 309.321 190.206 309.598C190.876 309.876 191.485 310.282 191.998 310.796C192.512 311.309 192.919 311.918 193.196 312.589C193.474 313.26 193.617 313.979 193.617 314.705C193.617 315.431 193.474 316.15 193.196 316.821C192.919 317.492 192.512 318.101 191.998 318.615C191.485 319.128 190.876 319.535 190.206 319.812C189.535 320.089 188.817 320.231 188.091 320.231Z" fill="#CCCCCC"/>
<path d="M188.371 159.301C194.086 159.301 198.719 154.663 198.719 148.941C198.719 143.219 194.086 138.58 188.371 138.58C182.656 138.58 178.023 143.219 178.023 148.941C178.023 154.663 182.656 159.301 188.371 159.301Z" fill="#3F3D56"/>
<path d="M426.791 206.268H183.262C181.798 206.268 180.395 205.685 179.36 204.649C178.325 203.613 177.743 202.208 177.743 200.742C177.743 199.277 178.325 197.871 179.36 196.835C180.395 195.799 181.798 195.217 183.262 195.217H426.791C428.255 195.217 429.659 195.799 430.694 196.835C431.729 197.871 432.31 199.277 432.31 200.742C432.31 202.208 431.729 203.613 430.694 204.649C429.659 205.685 428.255 206.268 426.791 206.268Z" fill="#AF47D2"/>
<path d="M347.454 182.784H183.262C182.537 182.785 181.818 182.643 181.148 182.366C180.478 182.088 179.868 181.681 179.355 181.168C178.842 180.655 178.435 180.046 178.157 179.375C177.879 178.704 177.736 177.985 177.736 177.259C177.736 176.533 177.879 175.814 178.157 175.143C178.435 174.472 178.842 173.863 179.355 173.349C179.868 172.836 180.478 172.429 181.148 172.152C181.818 171.875 182.537 171.732 183.262 171.733H347.454C348.18 171.732 348.898 171.875 349.568 172.152C350.239 172.429 350.848 172.836 351.361 173.349C351.874 173.863 352.281 174.472 352.559 175.143C352.837 175.814 352.98 176.533 352.98 177.259C352.98 177.985 352.837 178.704 352.559 179.375C352.281 180.046 351.874 180.655 351.361 181.168C350.848 181.681 350.239 182.088 349.568 182.366C348.898 182.643 348.18 182.785 347.454 182.784Z" fill="#AF47D2"/>
<path d="M426.685 284.262C426.921 283.127 427.404 282.057 428.098 281.129C428.792 280.2 429.68 279.436 430.702 278.888C431.723 278.341 432.851 278.024 434.008 277.961C435.165 277.898 436.321 278.089 437.396 278.521L455.88 257.257L459.806 271.369L441.651 289.398C440.806 291.157 439.345 292.545 437.546 293.299C435.747 294.052 433.734 294.118 431.889 293.485C430.045 292.852 428.496 291.564 427.537 289.864C426.577 288.164 426.274 286.171 426.685 284.262Z" fill="#FFB8B8"/>
<path d="M528.132 184.477C538.82 184.477 547.484 175.803 547.484 165.103C547.484 154.403 538.82 145.728 528.132 145.728C517.444 145.728 508.78 154.403 508.78 165.103C508.78 175.803 517.444 184.477 528.132 184.477Z" fill="#FFB8B8"/>
<path d="M505.398 431.785L495.738 431.784L491.143 394.482L505.4 394.482L505.398 431.785Z" fill="#FFB8B8"/>
<path d="M507.861 441.159L476.714 441.158V440.764C476.714 439.17 477.028 437.591 477.637 436.119C478.246 434.646 479.139 433.308 480.265 432.181C481.391 431.054 482.727 430.16 484.198 429.55C485.669 428.94 487.246 428.626 488.838 428.626L507.862 428.627L507.861 441.159Z" fill="#2F2E41"/>
<path d="M534.55 442.039L524.891 442.039L523.553 405.628L534.553 404.737L534.55 442.039Z" fill="#FFB8B8"/>
<path d="M537.014 451.414L505.867 451.413V451.018C505.867 449.424 506.181 447.846 506.79 446.374C507.399 444.901 508.292 443.563 509.418 442.436C510.544 441.309 511.88 440.415 513.351 439.805C514.822 439.195 516.398 438.881 517.99 438.881L537.014 438.882L537.014 451.414Z" fill="#2F2E41"/>
<path d="M531.803 435.232L524.281 434.345C523.428 434.243 522.64 433.835 522.065 433.196C521.489 432.557 521.164 431.731 521.15 430.871L519.74 332.789C519.736 332.511 519.635 332.244 519.454 332.034C519.273 331.824 519.024 331.684 518.75 331.639C518.476 331.594 518.196 331.647 517.957 331.788C517.718 331.929 517.537 332.15 517.444 332.411L507.008 361.913L507.754 417.211C507.767 418.124 507.428 419.007 506.807 419.676C506.187 420.345 505.333 420.748 504.423 420.803L494.602 421.22C493.704 421.271 492.819 420.981 492.126 420.407C491.433 419.832 490.982 419.017 490.864 418.124L485.735 355.569L485.731 355.53L493.514 290.2L551.964 294.434L535.738 432.123C535.636 432.986 535.221 433.781 534.573 434.358C533.924 434.935 533.087 435.255 532.219 435.257C532.08 435.257 531.941 435.249 531.803 435.232Z" fill="#2F2E41"/>
<path d="M493.764 295.991C493.239 295.711 492.794 295.302 492.469 294.803C492.145 294.304 491.952 293.731 491.908 293.137C491.908 293.137 497.164 260.413 499.09 259.799L494.876 224.804C494.371 220.536 494.723 216.209 495.911 212.079C497.099 207.949 499.1 204.098 501.794 200.752C504.39 197.506 507.615 194.821 511.276 192.857C514.936 190.894 518.956 189.693 523.093 189.328C523.682 189.275 524.268 189.234 524.851 189.206C529.837 188.939 534.815 189.881 539.36 191.952C543.905 194.024 547.884 197.163 550.957 201.103C554.146 205.078 556.328 209.764 557.318 214.764C558.308 219.765 558.078 224.93 556.646 229.822L554.282 238.057V295.607C554.28 296.168 554.146 296.722 553.891 297.222C553.636 297.723 553.268 298.156 552.815 298.489C545.455 303.896 537.138 305.808 529.055 305.808C513.761 305.808 499.306 298.962 493.764 295.991Z" fill="#AF47D2"/>
<path d="M448.388 285.46L438.222 277.849C437.823 277.551 437.491 277.171 437.249 276.736C437.006 276.301 436.858 275.819 436.813 275.322C436.769 274.826 436.83 274.326 436.991 273.854C437.153 273.383 437.412 272.95 437.752 272.586L498.313 207.528C500.257 205.457 502.878 204.154 505.7 203.853C508.523 203.553 511.359 204.276 513.694 205.89C515.117 206.884 516.304 208.179 517.17 209.683C518.036 211.188 518.56 212.865 518.705 214.596C518.85 216.327 518.612 218.068 518.008 219.696C517.404 221.324 516.449 222.798 515.211 224.015L452.995 285.151C452.448 285.693 451.739 286.041 450.976 286.142C450.213 286.243 449.438 286.091 448.769 285.71C448.637 285.634 448.51 285.551 448.388 285.46Z" fill="#AF47D2"/>
<path d="M526.193 276.846C526.638 275.775 527.311 274.815 528.166 274.032C529.022 273.25 530.038 272.665 531.143 272.319C532.249 271.972 533.416 271.873 534.564 272.027C535.712 272.181 536.813 272.586 537.788 273.212L559.917 255.784L561.138 270.381L539.936 284.693C538.777 286.263 537.083 287.353 535.175 287.756C533.267 288.16 531.277 287.848 529.583 286.881C527.889 285.913 526.609 284.358 525.984 282.508C525.359 280.659 525.434 278.644 526.193 276.846Z" fill="#FFB8B8"/>
<path d="M546.001 283.649C545.415 283.467 544.887 283.135 544.469 282.685C544.052 282.236 543.758 281.685 543.619 281.087L541.384 271.687C541.22 271.02 541.256 270.319 541.487 269.672C541.718 269.025 542.134 268.46 542.684 268.049L557.724 251.764L535.601 217.61C533.927 215.546 532.983 212.985 532.917 210.326C532.851 207.668 533.667 205.062 535.237 202.918C536.489 201.209 538.169 199.861 540.109 199.012C542.048 198.163 544.177 197.842 546.28 198.081C548.383 198.321 550.386 199.113 552.085 200.377C553.784 201.641 555.119 203.333 555.955 205.279L576.523 245.36C578.567 249.343 579.077 253.939 577.955 258.273C576.834 262.607 574.158 266.377 570.439 268.864L549.42 282.921C548.777 283.497 547.943 283.817 547.08 283.817C546.714 283.817 546.35 283.76 546.001 283.649Z" fill="#AF47D2"/>
<path d="M542.471 182.423C542.015 182.697 541.503 182.862 540.972 182.906C540.442 182.95 539.909 182.871 539.415 182.675C538.92 182.48 538.477 182.173 538.12 181.778C537.763 181.384 537.501 180.912 537.355 180.4L537.343 180.352C536.949 178.74 537.26 177.052 537.362 175.396C537.464 173.739 537.292 171.921 536.159 170.71C534.047 168.451 530.318 169.675 527.278 169.117C525.498 168.729 523.919 167.705 522.838 166.236C521.757 164.767 521.248 162.954 521.406 161.136C521.448 160.792 521.513 160.447 521.588 160.102C521.773 159.229 521.753 158.324 521.531 157.459C521.308 156.595 520.888 155.793 520.304 155.119C519.72 154.444 518.988 153.913 518.164 153.57C517.341 153.226 516.45 153.078 515.56 153.137C512.492 153.329 509.185 154.278 506.633 152.016C505.698 151.123 505.046 149.975 504.758 148.713C504.47 147.452 504.56 146.134 505.016 144.923C506.443 140.726 510.529 138.511 514.577 137.283C519.584 135.806 524.857 135.464 530.012 136.282C535.168 137.101 540.076 139.06 544.381 142.015C546.951 143.809 549.355 146.067 550.463 149.002C551.57 151.936 551.063 155.649 548.612 157.603C550.531 159.615 551.888 162.097 552.547 164.8C553.206 167.502 553.144 170.331 552.367 173.002C551.172 176.93 545.39 180.721 542.471 182.423Z" fill="#2F2E41"/>
<path d="M664 451.211C664 451.42 663.916 451.621 663.769 451.768C663.621 451.916 663.421 451.999 663.212 452H363.016C362.807 452 362.607 451.917 362.459 451.769C362.312 451.621 362.229 451.42 362.229 451.211C362.229 451.002 362.312 450.801 362.459 450.653C362.607 450.505 362.807 450.422 363.016 450.422H663.212C663.421 450.423 663.621 450.506 663.769 450.654C663.916 450.802 664 451.002 664 451.211Z" fill="#3F3D56"/>
</g>
<defs>
<clipPath id="clip0_88_837">
<rect width="664" height="452" fill="white"/>
</clipPath>
</defs>
</svg>
